<svg width="16" height="16" viewBox="0 0 16 16" fill="none" xmlns="http://www.w3.org/2000/svg">
<path d="M7.66305 0.666748C7.87073 0.666978 8.07048 0.746501 8.2215 0.889069C8.37251 1.03164 8.46339 1.22649 8.47556 1.43381C8.48773 1.64113 8.42028 1.84528 8.28698 2.00454C8.15369 2.1638 7.96461 2.26615 7.75838 2.29067L7.66305 2.29638H3.58898C3.3894 2.2964 3.19678 2.36968 3.04764 2.50229C2.8985 2.63491 2.80321 2.81765 2.77986 3.01586L2.77416 3.11119V12.889C2.77419 13.0885 2.84746 13.2812 2.98008 13.4303C3.1127 13.5795 3.29544 13.6747 3.49364 13.6981L3.58898 13.7038H7.25564C7.46332 13.704 7.66308 13.7835 7.81409 13.9261C7.96511 14.0687 8.05598 14.2635 8.06815 14.4708C8.08032 14.6782 8.01287 14.8823 7.87958 15.0416C7.74628 15.2008 7.5572 15.3032 7.35098 15.3277L7.25564 15.3334H3.58898C2.96547 15.3335 2.36552 15.0952 1.91187 14.6675C1.45823 14.2397 1.18518 13.6548 1.14861 13.0324L1.14453 12.889V3.11119C1.1445 2.48769 1.38272 1.88774 1.81047 1.43409C2.23821 0.980446 2.82314 0.707401 3.44557 0.670822L3.58898 0.666748H7.66305ZM12.3132 5.1189L14.6175 7.42401C14.7702 7.57681 14.8561 7.78402 14.8561 8.00008C14.8561 8.21614 14.7702 8.42336 14.6175 8.57616L12.3132 10.8813C12.1603 11.0341 11.953 11.1198 11.7368 11.1198C11.5207 11.1197 11.3134 11.0338 11.1606 10.8809C11.0079 10.728 10.9221 10.5206 10.9221 10.3045C10.9222 10.0884 11.0082 9.88109 11.161 9.7283L12.0745 8.8149H7.66305C7.44695 8.8149 7.2397 8.72905 7.08689 8.57624C6.93408 8.42344 6.84824 8.21618 6.84824 8.00008C6.84824 7.78398 6.93408 7.57673 7.08689 7.42392C7.2397 7.27111 7.44695 7.18527 7.66305 7.18527H12.0745L11.161 6.27186C11.0082 6.11907 10.9222 5.91181 10.9221 5.69567C10.9221 5.47952 11.0079 5.2722 11.1606 5.1193C11.3134 4.96641 11.5207 4.88047 11.7368 4.8804C11.953 4.88032 12.1603 4.96611 12.3132 5.1189Z" fill="#08080C"/>
</svg>
