<svg width="16" height="16" viewBox="0 0 16 16" fill="none" xmlns="http://www.w3.org/2000/svg">
<g clip-path="url(#clip0_637_3391)">
<path fill-rule="evenodd" clip-rule="evenodd" d="M10.8145 10.814C11.1269 10.5016 11.6334 10.5016 11.9459 10.814L15.6328 14.5009C15.9452 14.8134 15.9452 15.3199 15.6328 15.6323C15.3204 15.9447 14.8139 15.9447 14.5014 15.6323L10.8145 11.9454C10.5021 11.6329 10.5021 11.1264 10.8145 10.814Z" fill="#08080C"/>
<path fill-rule="evenodd" clip-rule="evenodd" d="M6.77147 1.7333C3.98924 1.7333 1.73379 3.98875 1.73379 6.77098C1.73379 9.55322 3.98924 11.8087 6.77147 11.8087C9.55371 11.8087 11.8092 9.55322 11.8092 6.77098C11.8092 3.98875 9.55371 1.7333 6.77147 1.7333ZM0.133789 6.77098C0.133789 3.10509 3.10558 0.133301 6.77147 0.133301C10.4374 0.133301 13.4092 3.10509 13.4092 6.77098C13.4092 10.4369 10.4374 13.4087 6.77147 13.4087C3.10558 13.4087 0.133789 10.4369 0.133789 6.77098Z" fill="#08080C"/>
</g>
<defs>
<clipPath id="clip0_637_3391">
<rect width="16" height="16" fill="white"/>
</clipPath>
</defs>
</svg>
