<svg width="16" height="16" viewBox="0 0 16 16" fill="none" xmlns="http://www.w3.org/2000/svg">
<path d="M13.2066 6.39394L4.74073 1.20851C4.43992 1.05798 4.1056 0.986889 3.76957 1.00199C3.43353 1.01709 3.10694 1.11788 2.82084 1.29478C2.53474 1.47168 2.29863 1.71881 2.13496 2.01268C1.97129 2.30655 1.8855 2.6374 1.88574 2.97377V13.0262C1.8855 13.3626 1.97129 13.6934 2.13496 13.9873C2.29863 14.2812 2.53474 14.5283 2.82084 14.7052C3.10694 14.8821 3.43353 14.9829 3.76957 14.998C4.1056 15.0131 4.43992 14.942 4.74073 14.7915L13.2066 9.33276C13.4793 9.19611 13.7085 8.9863 13.8688 8.72679C14.029 8.46729 14.1138 8.16833 14.1138 7.86335C14.1138 7.55837 14.029 7.25941 13.8688 6.99991C13.7085 6.74041 13.4793 6.53059 13.2066 6.39394Z" stroke="white" stroke-width="1.64" stroke-linecap="round" stroke-linejoin="round"/>
</svg>
