<svg width="42" height="42" viewBox="0 0 42 42" fill="none" xmlns="http://www.w3.org/2000/svg">
<rect width="42" height="42" fill="#6E62E5"/>
<path fill-rule="evenodd" clip-rule="evenodd" d="M20.8815 10.5C23.3728 10.5 25.5849 11.2116 27.1096 12.5802C29.2559 14.5192 29.612 16.6247 29.612 21.6381L29.6333 30.5667H25.2688V20.8639C25.2688 18.3375 25.1265 16.8932 24.1255 15.8475C23.3206 15.0077 22.231 14.5555 20.8815 14.5555C19.5321 14.5555 18.442 15.0077 17.6375 15.8475C16.6366 16.8932 16.4958 18.3355 16.4958 20.8639V30.5667H12.1333L12.1546 21.6381C12.1546 16.6247 12.5066 14.5192 14.6575 12.5802C16.1761 11.2116 18.3938 10.5 20.8815 10.5Z" fill="white"/>
</svg>
